<svg width="76" height="32" viewBox="0 0 76 32" fill="none" xmlns="http://www.w3.org/2000/svg">
<g clip-path="url(#clip0_496_13)">
<path d="M61.8162 9.99658C61.7734 9.99658 61.7296 9.9927 61.681 9.98591C59.748 9.69982 58.1448 9.46707 56.6369 9.25372C56.2341 9.1965 55.9958 8.9463 55.9656 8.54772C55.8781 7.40337 55.7827 6.23963 55.6913 5.11468L55.8304 5.29409C55.8226 5.20487 55.8129 5.11468 55.8022 5.02546L55.7866 4.88872C55.7604 4.64239 55.9238 4.41643 56.167 4.36406L56.2205 4.35243C56.2546 4.34564 56.2876 4.34176 56.3217 4.34176C56.491 4.34176 56.6505 4.43001 56.739 4.57839L57.9541 6.0864L59.5048 4.12744C59.5982 4.01009 59.7392 3.94318 59.8861 3.94318C59.9095 3.94318 59.9328 3.94512 59.9562 3.94803C60.1283 3.97324 60.2733 4.08767 60.3375 4.24866L61.2607 6.56547L63.2968 4.70446C63.3893 4.62009 63.507 4.57645 63.6257 4.57645C63.7171 4.57645 63.8085 4.60166 63.8893 4.65403L63.9224 4.67536C64.116 4.7995 64.1957 5.04291 64.113 5.25724L63.9885 5.58017C63.8951 5.82262 63.8027 6.06507 63.7074 6.30654C63.579 6.63433 63.4496 6.96212 63.3202 7.2899C63.0293 8.02791 62.7287 8.79016 62.4388 9.54175C62.2861 9.93548 61.9825 9.99464 61.8142 9.99464L61.8162 9.99658Z" fill="black"/>
<path d="M56.3208 4.82659C56.9054 5.80317 57.2965 5.93506 57.8977 6.93975C58.5719 6.08828 59.2101 5.28239 59.8862 4.42801C60.287 5.43465 60.6693 6.39376 61.0701 7.39943C61.933 6.611 62.7794 5.83711 63.6257 5.06322C63.6374 5.07001 63.6481 5.07777 63.6598 5.08455C63.5255 5.43368 63.3922 5.7828 63.256 6.13095C62.8329 7.21032 62.4048 8.28776 61.9865 9.36907C61.9466 9.47283 61.9019 9.51065 61.8163 9.51065C61.7968 9.51065 61.7754 9.50871 61.7521 9.50484C60.07 9.25657 58.388 9.01121 56.705 8.77265C56.5319 8.7484 56.4638 8.68634 56.4502 8.50984C56.3451 7.14244 56.4258 6.62069 56.314 5.2533C56.3023 5.11365 56.2848 4.97497 56.2702 4.83629C56.2877 4.83241 56.3042 4.82853 56.3217 4.82562M56.3217 3.85584C56.2537 3.85584 56.1856 3.86263 56.1175 3.87717L56.0892 3.88299L56.0659 3.88784C55.5795 3.99161 55.2497 4.44547 55.3022 4.93909C55.3071 4.98467 55.312 5.03122 55.3178 5.0768C55.3275 5.16699 55.3373 5.25136 55.3441 5.33185L55.203 5.13013C55.2925 6.22793 54.7604 7.10559 54.9763 8.20435C54.9802 8.22181 54.9929 8.23054 55.0036 8.25187C55.6145 9.07134 55.9346 9.64254 56.5669 9.73176C58.0709 9.94415 59.6722 10.1769 61.6081 10.463C61.6801 10.4737 61.7482 10.4785 61.8153 10.4785C62.3056 10.4785 62.7083 10.1934 62.8932 9.71528C63.1831 8.96563 63.4827 8.20338 63.7736 7.46732C63.903 7.13856 64.0324 6.81077 64.1608 6.48201C64.2561 6.23957 64.3495 5.99712 64.4419 5.75371C64.4837 5.64606 64.5246 5.53744 64.5664 5.4298C64.7318 5.00115 64.6404 4.4251 63.7211 3.49411C63.5596 3.39034 63.8067 4.09052 63.6247 4.09052C63.3874 4.09052 63.151 4.17684 62.9671 4.34558L61.8669 5.35125L61.4515 5.73043L60.0282 4.51238C59.8998 4.19041 60.3697 3.51544 60.0253 3.46501C59.9786 3.45822 59.9309 3.45435 59.8842 3.45435C59.5895 3.45435 59.3064 3.58818 59.1206 3.82286L58.211 4.97206L58.0077 5.22905L56.8198 4.4765C56.6418 4.17878 56.6564 3.85293 56.3188 3.85293L56.3217 3.85584Z" fill="black"/>
<path d="M61.0818 8.96375C61.039 8.96375 60.9942 8.95987 60.9456 8.95308C59.0155 8.66796 57.4123 8.43521 55.9015 8.22089C55.4987 8.16367 55.2604 7.91347 55.2302 7.51489C55.1777 6.82925 55.1709 6.3492 55.1641 5.88468C55.1573 5.39978 55.1504 4.94205 55.095 4.26126C55.0872 4.1701 55.0775 4.07991 55.0668 3.98875L55.0522 3.85589C55.0259 3.60956 55.1903 3.38263 55.4326 3.33026L55.4841 3.3196C55.5182 3.31184 55.5532 3.30893 55.5872 3.30893C55.7555 3.30893 55.9161 3.39718 56.0046 3.54556C56.4433 4.27871 56.8111 4.77136 57.1389 5.1554L58.7703 3.09558C58.8637 2.97823 59.0048 2.91132 59.1517 2.91132C59.175 2.91132 59.1984 2.91326 59.2217 2.91616C59.3939 2.94138 59.5389 3.05581 59.6031 3.2168L60.5263 5.53362L62.5624 3.6726C62.6548 3.58823 62.7725 3.54459 62.8912 3.54459C62.9827 3.54459 63.0741 3.5698 63.1548 3.62217L63.1889 3.6435C63.3825 3.76764 63.4623 4.01105 63.3796 4.22537L63.255 4.54928C63.1617 4.79173 63.0692 5.03418 62.9739 5.27565C62.8455 5.60344 62.7161 5.93123 62.5877 6.25901C62.2968 6.99702 61.9962 7.76024 61.7063 8.51182C61.5536 8.90556 61.2501 8.96472 61.0818 8.96472V8.96375Z" fill="#F7E778"/>
<path d="M59.1517 3.39617C59.5525 4.40281 59.9348 5.36192 60.3356 6.36759C61.1985 5.57916 62.0449 4.80527 62.8912 4.03138L62.9253 4.05271C62.791 4.40184 62.6578 4.75096 62.5216 5.09911C62.0984 6.17848 61.6703 7.25591 61.252 8.33722C61.2121 8.44099 61.1674 8.47881 61.0818 8.47881C61.0623 8.47881 61.0409 8.47687 61.0176 8.47299C59.3356 8.22473 57.6536 7.97937 55.9706 7.74081C55.7974 7.71656 55.7293 7.6545 55.7157 7.47799C55.6106 6.1106 55.6914 5.58885 55.5795 4.22146C55.5678 4.08181 55.5503 3.94313 55.5357 3.80445C55.5532 3.80057 55.5698 3.79669 55.5873 3.79378C56.1719 4.77036 56.6467 5.35998 57.1642 5.90694C57.8384 5.05547 58.4766 4.24958 59.1527 3.3952M59.1527 2.42542C58.8579 2.42542 58.5748 2.55925 58.389 2.7949L57.5874 3.80833L57.1389 4.37565C56.922 4.08569 56.6866 3.73753 56.4239 3.29822C56.2459 3.0005 55.9258 2.82497 55.5882 2.82497C55.5201 2.82497 55.452 2.83176 55.384 2.8463L55.3334 2.85697C54.847 2.96074 54.5172 3.4146 54.5697 3.90725C54.5746 3.9538 54.5804 4.00035 54.5853 4.04787C54.595 4.13709 54.6047 4.22146 54.6115 4.30098C54.666 4.96528 54.6718 5.41526 54.6796 5.8924C54.6864 6.36468 54.6932 6.85248 54.7477 7.55267C54.7964 8.18303 55.203 8.61167 55.8353 8.70186C57.3345 8.91425 58.9367 9.14603 60.8765 9.43308C60.9485 9.44375 61.0166 9.4486 61.0837 9.4486C61.574 9.4486 61.9768 9.16348 62.1616 8.68635C62.4515 7.9367 62.7512 7.17542 63.042 6.43839C63.1714 6.10963 63.3008 5.78087 63.4302 5.45211C63.5246 5.21258 63.617 4.97207 63.7094 4.73059C63.7522 4.62004 63.794 4.50948 63.8368 4.3999C64.0022 3.97125 63.8427 3.48539 63.4555 3.23616L63.4389 3.22549L63.4224 3.21482C63.2609 3.11105 63.078 3.06062 62.8961 3.06062C62.6587 3.06062 62.4233 3.14693 62.2385 3.31568L60.7228 4.7015L60.0603 3.03832C59.9319 2.71635 59.641 2.48651 59.2967 2.43705C59.25 2.43026 59.2023 2.42638 59.1556 2.42638L59.1527 2.42542Z" fill="black"/>
<path d="M15.0954 27.5011L15.429 25.7022L16.0555 25.5383C17.2862 25.2173 18.4088 24.7848 19.3943 24.2524C20.4167 23.6996 21.3302 22.9965 22.1094 22.1634C22.8877 21.3294 23.5405 20.3296 24.0483 19.192C24.5347 18.103 24.9219 16.819 25.2011 15.3769V15.374L25.202 15.3711L25.8733 11.7994L26.1029 10.5745L24.6242 8.72998L7.86825 10.5745H6.70086L5.22119 9.87045L5.08208 10.8975L4.7698 12.0845L6.72907 13.1755H17.363L17.7706 15.4884C17.7269 15.7192 17.686 15.95 17.6481 16.1779H6.2018L6.0442 17.3417L4.27463 17.684L6.29033 18.5481H17.398C17.3689 18.6402 16.7959 19.7167 16.7657 19.8069C16.6285 20.2103 16.4768 20.5914 16.3133 20.9483L16.3484 20.7602L14.9037 20.9774C14.501 21.0375 14.0233 21.0986 13.4863 21.1578C12.9357 21.2189 12.3637 21.2771 11.7848 21.3304C11.2187 21.3837 10.668 21.4254 10.1466 21.4555C9.63976 21.4856 9.20394 21.5001 8.8508 21.5001H7.75054L7.53749 22.596L7.38281 23.3902L7.14349 24.6218H8.22333L7.69703 27.5011H1.9739L1.81631 28.6649L0.0107422 29.2438L1.48846 31.0884H24.8791L25.0367 29.9246L25.2079 28.6639L25.3655 27.5002L23.8819 25.6566L15.0963 27.5002L15.0954 27.5011Z" fill="black"/>
<path d="M39.8051 25.6295C40.2195 26.1376 40.9054 26.3956 41.8422 26.3956C42.3325 26.3956 42.853 26.3151 43.389 26.157C43.9065 26.0048 44.4036 25.7953 44.8648 25.5344C45.3531 25.258 45.786 24.9283 46.1508 24.552C46.6149 24.0739 46.9048 23.5357 47.0118 22.9519L49.3855 10.2564C49.4944 9.76282 49.3612 9.32448 49.08 8.99184C48.8854 8.76103 48.0449 7.6196 47.7249 7.29569C47.684 7.25496 47.4962 8.53701 47.4311 8.53701C47.0507 8.53701 47.0906 8.64854 46.5691 8.77364C46.1479 8.87547 45.6673 8.99378 45.1391 9.12664C44.642 9.25175 44.0875 9.372 43.4911 9.48352C42.9337 9.58729 42.3296 9.64742 41.6943 9.661L40.6145 9.68427L40.4063 10.7559L40.2526 11.5472C40.2458 11.5404 40.239 11.5336 40.2322 11.5269C39.6524 10.9896 38.914 10.5716 38.0384 10.2865C37.1931 10.0111 36.2154 9.87144 35.1346 9.87144C34.0538 9.87144 33.0517 10.0033 32.075 10.2642C31.0604 10.5348 30.1255 10.9557 29.2966 11.5143C28.4386 12.0922 27.7129 12.8264 27.1409 13.6963C26.5611 14.5768 26.1885 15.599 26.0348 16.7327C25.9073 17.6763 25.9696 18.55 26.2225 19.3298C26.4764 20.1182 28.318 20.0542 28.9163 20.6089C29.3433 21.0046 28.4474 22.0791 29.0369 22.34H27.5952L27.4376 23.5037L27.2985 24.5307L27.1409 25.6945H28.1662L27.9045 27.1588C27.8024 27.6961 26.5542 26.8873 26.7702 27.5361C26.9862 28.1849 28.6711 30.3 29.5291 30.8537C30.7218 31.6237 32.5099 31.9981 34.9954 31.9981C35.9362 31.9981 36.8973 31.9486 37.8526 31.8516C38.805 31.7546 39.7243 31.6189 40.5853 31.4492C41.4375 31.2804 42.2488 31.0884 42.9969 30.876C43.7723 30.6559 44.4562 30.4134 45.0292 30.1535L46.0059 29.7113L45.821 28.7454L45.6294 27.7417L44.1468 25.8865L44.1225 27.0463C43.7139 27.2238 43.2324 27.3925 42.6905 27.5467C42.1243 27.7077 41.525 27.8532 40.9102 27.9783C40.3003 28.1024 39.6757 28.1984 39.055 28.2634C38.4344 28.3284 37.841 28.3623 37.2923 28.3623C36.9314 28.3623 36.5841 28.3303 36.2611 28.2663C36.0033 28.2159 35.7873 28.1325 35.62 28.021C35.4867 27.9317 35.3904 27.8222 35.3262 27.6854C35.2863 27.602 35.2853 27.4721 35.3213 27.3004L35.3252 27.283L35.3282 27.2655L35.9945 23.5532L36.191 22.4573C37.0043 22.1906 37.7612 21.826 38.4441 21.3653C39.1241 20.9066 39.7195 20.3519 40.2224 19.7118L38.1396 22.9548C37.9713 23.8441 39.5522 25.3143 39.807 25.6275L39.8051 25.6295ZM41.2497 12.7837C41.3538 12.7837 41.4287 12.7934 41.4803 12.8041C41.4793 12.872 41.4706 12.9767 41.4424 13.126L41.4151 13.2705C41.349 13.1028 41.2741 12.9398 41.1914 12.7827H41.2497V12.7837ZM33.5255 14.7873C33.6899 14.3082 33.8689 13.929 34.0557 13.6614C34.2542 13.3772 34.3855 13.288 34.4215 13.2667C34.4302 13.2608 34.44 13.256 34.4477 13.2521C34.5003 13.3598 34.5596 13.5169 34.6112 13.7418C34.6822 14.0551 34.7192 14.4217 34.7221 14.8309C34.726 15.2644 34.6968 15.7076 34.6374 16.1489C34.5324 16.9218 34.3894 17.5764 34.2114 18.0952C34.046 18.5743 33.8679 18.9535 33.6812 19.2211C33.4827 19.5043 33.3514 19.5945 33.3163 19.6149C33.3066 19.6207 33.2979 19.6255 33.2891 19.6294C33.2356 19.5218 33.1772 19.3656 33.1257 19.1397C33.0547 18.8274 33.0177 18.4608 33.0148 18.0496C33.0119 17.6161 33.0401 17.172 33.0994 16.7317C33.2045 15.9578 33.3475 15.3032 33.5255 14.7853V14.7873Z" fill="black"/>
<path d="M75.4018 13.8252C75.25 13.6507 74.0592 12.0796 73.8559 11.9584C73.4016 11.6878 73.8608 12.9166 73.1574 12.9166C72.7557 12.9166 72.3792 12.9631 72.029 13.0533L72.5485 10.2555C72.6574 9.76185 72.5465 9.30314 72.242 8.99184C71.9745 8.71933 70.954 7.44794 70.7944 7.2986C70.5143 7.03675 70.2536 8.64951 69.7448 8.77655C69.3381 8.87838 68.876 8.99572 68.3565 9.12858C67.8662 9.25368 67.3234 9.37394 66.7417 9.48546C66.2017 9.58923 65.6073 9.64838 64.974 9.66196L63.8942 9.68524L63.686 10.7568L63.6529 10.9285C63.5664 10.8626 63.4759 10.7986 63.3815 10.7375C62.2171 9.98199 60.4271 9.61444 57.9094 9.61444C55.3917 9.61444 53.3857 10.0024 51.9119 10.8015C50.264 11.6946 49.2736 13.0514 49.047 14.7242C48.8641 16.0771 49.1851 17.2166 50.0032 18.1107C50.5597 18.7198 51.336 19.1678 52.3575 19.4675H47.6782L47.5206 20.6312L47.3494 21.8919L47.1918 23.0557H53.6202C52.2738 23.9867 51.4605 25.2551 51.2553 26.7719C51.1278 27.7165 49.9274 26.7961 50.2834 27.5002C50.6142 28.1529 52.4693 30.4493 53.1999 30.8605C54.5308 31.6101 56.5513 31.9748 59.3764 31.9748C62.2015 31.9748 64.5119 31.5607 66.1687 30.7082C68.0161 29.7569 69.1222 28.2993 69.3663 26.4916C69.5405 25.2047 69.2438 24.1195 68.5064 23.2894H70.1174L70.3226 22.1848L70.8538 19.3317C71.2235 19.4616 71.6544 19.5276 72.1457 19.5276C73.2002 19.5276 74.0787 19.2124 74.7548 18.5917C75.4134 17.9866 75.8171 17.1652 75.9543 16.1508C76.0915 15.1364 75.8872 14.3887 75.3988 13.8252H75.4018ZM58.817 25.9544C58.9532 25.6867 59.1167 25.4607 59.3171 25.2619C59.5087 25.0718 59.7266 24.9215 59.9825 24.8022C60.2091 24.6965 60.4592 24.6451 60.7461 24.6451C61.3892 24.6451 61.646 24.8886 61.7987 25.1C62.0585 25.4617 62.147 25.9175 62.0692 26.4936C62.0312 26.7767 61.9456 27.0444 61.8085 27.314C61.6723 27.5807 61.5088 27.8066 61.3075 28.0064C61.1158 28.1955 60.8989 28.3458 60.643 28.4651C60.4164 28.5708 60.1663 28.6222 59.8794 28.6222C59.2363 28.6222 58.9795 28.3788 58.8268 28.1674C58.567 27.8057 58.4785 27.3499 58.5563 26.7738C58.5943 26.4906 58.6799 26.222 58.8161 25.9553L58.817 25.9544ZM63.8602 17.8334C63.4029 18.0603 62.9331 18.2669 62.4544 18.4511C62.7142 18.2863 62.9554 18.1078 63.1772 17.9168C63.4915 17.6462 63.7668 17.3572 64.0041 17.0508L63.8602 17.8343V17.8334ZM57.4094 12.9709C57.6389 12.9709 57.6681 13.0291 57.6993 13.0902C57.743 13.1755 57.8744 13.5382 57.7333 14.5856C57.6341 15.3177 57.4298 15.8938 57.1418 16.2517C56.8831 16.5736 56.7313 16.5736 56.6408 16.5736C56.4998 16.5736 56.4608 16.5581 56.3996 16.4097C56.3208 16.2197 56.2099 15.7474 56.349 14.7262C56.4754 13.7923 56.7284 13.3966 56.8675 13.2434C57.0747 13.0164 57.2284 12.9709 57.4103 12.9709H57.4094Z" fill="black"/>
<path d="M0.667358 28.663L0.996173 26.2385H6.6872L7.4139 22.2595C7.37596 22.2362 7.2777 22.1955 7.05979 22.1955H6.35157L6.73195 20.2375H7.2135C7.57831 20.2375 8.02678 20.222 8.54432 20.1919C9.07257 20.1609 9.63097 20.1182 10.204 20.0649C10.7857 20.0106 11.3616 19.9524 11.9152 19.8913C12.4609 19.8311 12.9464 19.7691 13.3588 19.707L14.1692 19.5848L13.8452 21.3285C14.1011 21.1365 14.3424 20.8911 14.5642 20.5973C14.8161 20.2627 15.0506 19.8748 15.2607 19.4442C15.4757 19.0029 15.6732 18.519 15.8463 18.006C15.9456 17.7131 16.039 17.4115 16.1265 17.1051H4.92639L5.2231 14.9143H16.645C16.6732 14.7718 16.6985 14.6312 16.7219 14.4925C16.7696 14.1977 16.8221 13.8941 16.8795 13.5906L17.2501 11.5017H5.42836L5.72508 9.31091H23.9422L23.1416 13.5721C22.8721 14.9667 22.5005 16.1993 22.0364 17.2389C21.5636 18.2969 20.9605 19.2231 20.2445 19.9902C19.5275 20.7573 18.686 21.4051 17.7424 21.9152C16.8124 22.4176 15.7461 22.8278 14.5729 23.1342L14.0807 23.2632L13.6711 22.276L12.9357 26.2395H23.2311L22.9022 28.6639H0.667358V28.663Z" fill="white"/>
<path d="M23.2388 9.89279L22.5676 13.4645C22.3059 14.8183 21.9508 15.9976 21.5033 17.0013C21.0548 18.005 20.4926 18.8691 19.8174 19.5926C19.1413 20.316 18.3572 20.9202 17.4642 21.4022C16.5711 21.8851 15.5584 22.274 14.425 22.5698L14.1254 21.8464C14.4533 21.6126 14.7558 21.313 15.0321 20.9474C15.3074 20.5818 15.5594 20.1648 15.787 19.6983C16.0146 19.2308 16.2189 18.7295 16.4009 18.1922C16.5828 17.6549 16.7443 17.0993 16.8843 16.5232H5.59472L5.73383 15.4962H17.1169C17.1898 15.1849 17.2511 14.8814 17.2988 14.5856C17.3464 14.2898 17.398 13.994 17.4544 13.6982L17.9476 10.9198H6.09572L6.23483 9.89279H23.2388ZM13.4464 20.2831L12.2333 26.8204H22.5618L22.3905 28.0811H1.33569L1.50691 26.8204H7.17458L7.98884 22.3613C8.03359 22.1431 7.9723 21.9647 7.804 21.8241C7.6357 21.6844 7.38763 21.6136 7.05979 21.6136L7.21447 20.8194C7.58901 20.8194 8.04429 20.8038 8.57934 20.7728C9.1144 20.7418 9.67474 20.6991 10.2594 20.6448C10.8441 20.5905 11.418 20.5323 11.9813 20.4693C12.5436 20.4072 13.032 20.3451 13.4474 20.2821M24.6455 8.72807H5.21434L5.07815 9.73568L4.93903 10.7627L4.76003 12.0826H16.5546L16.3045 13.4887C16.251 13.7719 16.2014 14.0541 16.1567 14.3315H4.71334L4.57714 15.3391L4.43803 16.3661L4.25903 17.686H15.3385C15.3239 17.7306 15.3093 17.7752 15.2938 17.8198C15.1663 18.1951 15.0263 18.5539 14.8755 18.8895L13.2722 19.13C12.8685 19.1911 12.3909 19.2512 11.8529 19.3104C11.3013 19.3715 10.7293 19.4297 10.1514 19.483C9.58524 19.5363 9.03365 19.578 8.51222 19.6081C8.00538 19.6382 7.56858 19.6527 7.21544 19.6527H6.25235L6.06945 20.5953L5.91478 21.3896L5.6453 22.7744H6.72708L6.20079 25.6537H0.486412L0.350217 26.6613L0.179 27.9221L0 29.2419H23.412L23.5482 28.2343L23.7194 26.9736L23.8984 25.6537H13.6371L13.9639 23.8916L14.7208 23.6938C15.9388 23.3757 17.0488 22.949 18.0206 22.4234C19.0197 21.8832 19.9118 21.1976 20.6716 20.3839C21.4323 19.5693 22.0705 18.5898 22.5695 17.4726C23.0521 16.3923 23.4363 15.118 23.7136 13.6817V13.6788L23.7146 13.6759L24.3858 10.1042L24.6446 8.72614L24.6455 8.72807Z" fill="black"/>
<path d="M33.6743 29.5736C31.2889 29.5736 29.5855 29.2225 28.4658 28.4991C27.2566 27.7184 26.7527 26.5993 27.0095 25.2629L27.3665 23.269H26.3188L26.6155 21.0783H34.0537L33.2609 25.4918C33.1996 25.7837 33.2113 26.0213 33.2949 26.1987C33.3893 26.3995 33.5284 26.5585 33.72 26.6865C33.9331 26.8291 34.2026 26.9329 34.5197 26.9959C34.8767 27.0657 35.2581 27.1016 35.655 27.1016C36.2251 27.1016 36.8399 27.0677 37.482 26.9998C38.123 26.9319 38.768 26.833 39.4004 26.705C40.0317 26.576 40.6485 26.4266 41.2332 26.2598C41.8062 26.0959 42.3198 25.9165 42.7586 25.7255L43.4288 25.4345L43.8433 27.604L43.4249 27.7931C42.886 28.0374 42.2371 28.2673 41.4978 28.4768C40.7682 28.6833 39.9743 28.8715 39.1406 29.0363C38.3001 29.2022 37.4012 29.335 36.4692 29.4301C35.5353 29.5251 34.5946 29.5736 33.6743 29.5736ZM40.523 23.9702C39.7302 23.9702 39.1795 23.7714 38.839 23.3621C38.5443 23.0081 38.4499 22.5407 38.5569 21.9724L40.5502 11.234C40.6553 10.6676 40.5561 10.5173 40.5551 10.5154C40.4131 10.3854 40.1368 10.3573 39.9306 10.3573H39.2223L39.6008 8.40996L40.0716 8.3993C40.7409 8.38475 41.3791 8.32171 41.9706 8.21019C42.5805 8.09672 43.1496 7.97356 43.6604 7.84458C44.1857 7.71269 44.6643 7.59437 45.0836 7.49352C45.5535 7.38005 45.9416 7.32574 46.2724 7.32574C46.5185 7.32574 46.8736 7.35484 47.1197 7.60504C47.2413 7.73014 47.4271 8.00265 47.325 8.44779L44.9484 21.1588C44.8676 21.5971 44.6488 22.0044 44.2956 22.3671C43.9863 22.6852 43.6166 22.9674 43.1983 23.204C42.7887 23.4348 42.347 23.622 41.883 23.7578C41.4092 23.8974 40.951 23.9682 40.5211 23.9682L40.523 23.9702ZM31.2851 20.5846C30.2587 20.5846 29.3355 20.4528 28.5407 20.1938C27.7235 19.9271 27.0358 19.5392 26.4968 19.0398C25.9462 18.5297 25.5483 17.9042 25.3158 17.1807C25.0862 16.4708 25.0288 15.6737 25.1456 14.8115C25.2856 13.7797 25.6184 12.8574 26.1369 12.0719C26.6486 11.2951 27.2965 10.6395 28.0621 10.1236C28.817 9.61444 29.6741 9.2304 30.607 8.98117C31.5273 8.73581 32.5001 8.61071 33.4992 8.61071C34.4983 8.61071 35.4468 8.7426 36.2426 9.00153C37.0607 9.26822 37.7485 9.65711 38.2875 10.1556C38.8371 10.6647 39.235 11.2902 39.4685 12.0137C39.698 12.7245 39.7554 13.5217 39.6387 14.3829C39.4967 15.4312 39.162 16.3574 38.6445 17.1361C38.1337 17.9051 37.4868 18.5559 36.7222 19.0708C35.9673 19.5799 35.1112 19.964 34.1773 20.2132C33.2579 20.4586 32.2841 20.5837 31.2851 20.5837V20.5846ZM33.292 10.7782C33.1149 10.7782 32.9359 10.8325 32.7462 10.943C32.541 11.0633 32.3299 11.2766 32.1178 11.5792C31.8882 11.907 31.6771 12.3492 31.4894 12.8943C31.2967 13.4548 31.143 14.1511 31.0331 14.9667C30.9699 15.4351 30.9397 15.9054 30.9426 16.3671C30.9465 16.8141 30.9874 17.2166 31.0662 17.5628C31.1382 17.8799 31.2354 18.1321 31.357 18.3115C31.4271 18.4162 31.466 18.4162 31.4913 18.4162C31.6684 18.4162 31.8474 18.3619 32.0371 18.2504C32.2423 18.1301 32.4534 17.9168 32.6655 17.6142C32.8941 17.2874 33.1052 16.8442 33.2939 16.2992C33.4866 15.7386 33.6403 15.0414 33.7502 14.2267C33.8134 13.7574 33.8446 13.287 33.8407 12.8264C33.8368 12.3793 33.7959 11.9768 33.7171 11.6306C33.6461 11.3145 33.5478 11.0623 33.4262 10.881C33.3562 10.7772 33.3183 10.7772 33.293 10.7772L33.292 10.7782Z" fill="white"/>
<path d="M46.2725 7.90862C46.4913 7.90862 46.6343 7.94353 46.7034 8.01335C46.7715 8.08318 46.789 8.18888 46.754 8.32853L44.3745 21.0531C44.3142 21.3799 44.1488 21.6834 43.8764 21.9637C43.604 22.244 43.282 22.4893 42.9104 22.6988C42.5388 22.9093 42.1409 23.0761 41.7177 23.2012C41.2945 23.3263 40.8957 23.3883 40.5211 23.3883C39.4277 23.3883 38.9636 22.9529 39.129 22.0811L41.1223 11.3407C41.2381 10.7181 41.1807 10.302 40.9521 10.0916C40.7225 9.88116 40.382 9.77642 39.9287 9.77642L40.0833 8.98217C40.7877 8.96665 41.4531 8.90071 42.0776 8.78336C42.7022 8.66699 43.2771 8.54188 43.8025 8.40999C44.3278 8.2781 44.8006 8.16076 45.2199 8.0599C45.6391 7.95904 45.9903 7.90862 46.2705 7.90862M33.4963 9.19261C34.4643 9.19261 35.3184 9.31383 36.0588 9.55434C36.7991 9.79582 37.4081 10.1382 37.8867 10.5813C38.3653 11.0245 38.7058 11.5618 38.9101 12.1922C39.1134 12.8225 39.1631 13.5275 39.057 14.3053C38.9267 15.2703 38.6261 16.1072 38.1552 16.8151C37.6844 17.524 37.0968 18.1146 36.3924 18.5898C35.6871 19.065 34.8982 19.419 34.0236 19.6517C33.149 19.8855 32.2346 20.0018 31.2832 20.0018C30.3317 20.0018 29.4611 19.8816 28.7208 19.6401C27.9804 19.3986 27.3714 19.0563 26.8928 18.6131C26.4142 18.1699 26.0727 17.6327 25.8694 17.0023C25.6661 16.3719 25.6165 15.6679 25.7225 14.8891C25.8509 13.9397 26.1515 13.1067 26.6233 12.391C27.0952 11.6753 27.6827 11.0798 28.388 10.6046C29.0924 10.1304 29.8823 9.77545 30.7569 9.5427C31.6314 9.30898 32.5449 9.19261 33.4983 9.19261M31.4904 18.9991C31.7715 18.9991 32.0517 18.9176 32.3319 18.7537C32.6121 18.5908 32.8825 18.3222 33.1432 17.9478C33.4049 17.5745 33.6384 17.0876 33.8446 16.4883C34.0509 15.889 34.2114 15.1616 34.3271 14.3053C34.3943 13.8078 34.4264 13.3132 34.4225 12.8225C34.4186 12.3318 34.3729 11.8925 34.2853 11.5036C34.1978 11.1147 34.0723 10.7995 33.9098 10.5581C33.7473 10.3166 33.5411 10.1963 33.2911 10.1963C33.0099 10.1963 32.7298 10.2778 32.4496 10.4417C32.1694 10.6056 31.899 10.8742 31.6383 11.2476C31.3766 11.621 31.1431 12.1078 30.9368 12.7071C30.7306 13.3064 30.5701 14.0347 30.4534 14.8901C30.3862 15.3886 30.3541 15.8822 30.358 16.3729C30.3619 16.8636 30.4076 17.3029 30.4952 17.6918C30.5827 18.0807 30.7082 18.3959 30.8707 18.6373C31.0332 18.8788 31.2394 18.9991 31.4894 18.9991M33.3543 21.6611L32.6879 25.3735C32.5994 25.7934 32.6257 26.1512 32.7648 26.448C32.9039 26.7438 33.114 26.9853 33.3932 27.1715C33.6724 27.3577 34.009 27.4905 34.405 27.5681C34.7999 27.6457 35.2163 27.6845 35.6541 27.6845C36.2475 27.6845 36.8769 27.6496 37.5423 27.5797C38.2077 27.5099 38.8654 27.4081 39.5152 27.2762C40.1651 27.1433 40.7906 26.992 41.3918 26.8204C41.992 26.6487 42.5251 26.4625 42.9901 26.2599L43.1818 27.2636C42.6662 27.4973 42.0514 27.7145 41.3363 27.9172C40.6213 28.1189 39.8518 28.3022 39.0249 28.4661C38.198 28.63 37.3264 28.758 36.408 28.8511C35.4897 28.9442 34.5772 28.9917 33.6724 28.9917C31.4242 28.9917 29.7938 28.6649 28.7811 28.0113C27.7684 27.3577 27.3685 26.4781 27.5806 25.3725L28.0612 22.6872H26.9843L27.1234 21.6602H33.3533M46.2705 6.74487C45.8931 6.74487 45.4601 6.805 44.9455 6.92913C44.5253 7.03096 44.0447 7.14927 43.5164 7.28213C43.0164 7.40821 42.46 7.52846 41.8617 7.63998C41.3013 7.74472 40.6943 7.80485 40.0571 7.81843L39.1154 7.83879L38.9364 8.76009L38.7817 9.55434L38.7379 9.78224C38.7194 9.76478 38.701 9.74733 38.6815 9.72987C38.0813 9.17321 37.3205 8.74166 36.4216 8.44879C35.5665 8.17046 34.583 8.02887 33.4963 8.02887C32.4097 8.02887 31.4223 8.15979 30.4534 8.41872C29.4572 8.68444 28.5418 9.09563 27.7324 9.64065C26.9025 10.2002 26.2011 10.9101 25.6456 11.7519C25.0795 12.6111 24.7156 13.6148 24.5639 14.733C24.4355 15.6814 24.5006 16.5649 24.7565 17.3582C25.0201 18.1767 25.4715 18.8856 26.0961 19.4646C26.5445 19.8796 27.0806 20.2249 27.6973 20.4955H26.1019L25.9657 21.5031L25.8266 22.5301L25.6476 23.8499H26.6661L26.4317 25.1601C26.135 26.7215 26.743 28.0801 28.1448 28.9859C29.3618 29.7715 31.1693 30.1535 33.6705 30.1535C34.6102 30.1535 35.5714 30.1041 36.5248 30.0071C37.4752 29.9101 38.3916 29.7753 39.2506 29.6056C40.0999 29.4378 40.9083 29.2458 41.6535 29.0354C42.421 28.8182 43.0972 28.5776 43.6624 28.3216L44.498 27.9434L44.3258 27.0444L44.1342 26.0407L43.8608 24.6093L42.5212 25.1921C42.1058 25.3725 41.6175 25.5442 41.0688 25.7003C40.4997 25.8622 39.8975 26.0087 39.2798 26.1338C38.6669 26.2579 38.0404 26.3549 37.4178 26.4199C36.7962 26.4858 36.2018 26.5188 35.6521 26.5188C35.2932 26.5188 34.9488 26.4868 34.6287 26.4238C34.3875 26.3762 34.19 26.3016 34.0411 26.2026C33.937 26.1328 33.8689 26.0552 33.8193 25.9505C33.7989 25.9078 33.7901 25.7934 33.8281 25.6101L33.832 25.5936L33.8349 25.5771L34.5013 21.8648L34.7172 20.6623C35.5617 20.3985 36.3438 20.0261 37.0452 19.5538C37.6678 19.1348 38.2175 18.6325 38.6873 18.0555L37.9801 21.8687C37.805 22.7938 38.1046 23.3941 38.3877 23.7336C38.8391 24.2766 39.557 24.5521 40.5211 24.5521C41.0066 24.5521 41.5202 24.4735 42.0485 24.3174C42.5533 24.169 43.0368 23.9653 43.4853 23.7122C43.9532 23.4475 44.3667 23.1323 44.715 22.7735C45.1488 22.3264 45.4212 21.8182 45.5224 21.2626L47.8961 8.56613C48.0109 8.04826 47.8815 7.5527 47.5381 7.20164C47.0887 6.74487 46.4738 6.74487 46.2715 6.74487H46.2705ZM39.6329 10.9402H39.9277C39.9549 10.9402 39.9793 10.9402 40.0016 10.9421C39.9958 10.9945 39.987 11.0565 39.9734 11.1293L39.9034 11.5094C39.8246 11.3126 39.7351 11.1225 39.6339 10.9402H39.6329ZM31.7268 17.7568C31.6956 17.6744 31.6635 17.5686 31.6334 17.4358C31.5643 17.1293 31.5273 16.7686 31.5244 16.3632C31.5215 15.9297 31.5497 15.4865 31.6091 15.0453C31.7141 14.2675 31.8591 13.608 32.0391 13.0844C32.2093 12.5898 32.3951 12.196 32.5936 11.9129C32.8076 11.6074 32.9642 11.4891 33.0381 11.4454C33.042 11.4425 33.0469 11.4406 33.0508 11.4386C33.0819 11.522 33.114 11.6277 33.1442 11.7596C33.2133 12.0661 33.2502 12.4268 33.2531 12.8322C33.257 13.2647 33.2278 13.7079 33.1685 14.1502C33.0634 14.927 32.9185 15.5874 32.7385 16.112C32.5683 16.6056 32.3815 17.0004 32.184 17.2826C31.97 17.588 31.8143 17.7064 31.7394 17.75C31.7355 17.7529 31.7307 17.7548 31.7268 17.7578V17.7568Z" fill="black"/>
<path d="M58.0582 29.5503C55.3227 29.5503 53.3799 29.2051 52.1192 28.4942C50.7553 27.7261 50.1492 26.4664 50.3681 24.8507C50.5821 23.2729 51.5141 22.049 53.1377 21.2131C53.5833 20.9842 54.0833 20.7873 54.6368 20.6244C54.4257 20.6283 54.2117 20.6312 53.9957 20.6312H46.3717L46.7005 18.2067H51.6113L51.8244 17.2224C50.5655 16.9538 49.6229 16.4834 49.0149 15.8191C48.2843 15.02 47.9963 14.0056 48.1588 12.8041C48.3553 11.3552 49.1802 10.2273 50.6103 9.45248C51.9547 8.72417 53.8605 8.35469 56.2741 8.35469C58.6877 8.35469 60.3959 8.69896 61.4865 9.40593C62.6539 10.1643 63.1646 11.3445 62.9652 12.8196C62.8134 13.9406 62.2784 14.9036 61.3756 15.6804C60.5808 16.3651 59.4854 16.8675 58.1166 17.1768L57.9726 17.9643C58.8443 17.8266 59.6527 17.6326 60.3833 17.3863C61.2491 17.0934 62.0935 16.7317 62.8981 16.3079L63.829 11.2359C63.9341 10.6686 63.8349 10.5173 63.8339 10.5163C63.6919 10.3864 63.4156 10.3583 63.2094 10.3583H62.5021L62.8805 8.41093L63.3514 8.40027C64.0187 8.38572 64.6491 8.32268 65.225 8.21213C65.8204 8.09769 66.3769 7.97453 66.8808 7.84652C67.3993 7.71463 67.8604 7.59728 68.2661 7.49546C68.7214 7.38199 69.1037 7.32574 69.4364 7.32574C69.6825 7.32574 70.0376 7.35484 70.2837 7.60504C70.4053 7.73014 70.5912 8.00265 70.489 8.44779L69.3654 14.5041L69.1241 15.7677L68.1756 20.8639H65.0791C65.2416 20.9367 65.3943 21.0133 65.5393 21.0957C66.909 21.8725 67.518 23.1284 67.302 24.7266C67.088 26.3044 66.156 27.5283 64.5324 28.3643C63.0031 29.1508 60.825 29.5493 58.0582 29.5493V29.5503ZM59.426 22.2187C59.0408 22.2187 58.6954 22.2924 58.3705 22.4437C58.033 22.6008 57.7314 22.8103 57.4746 23.0654C57.2138 23.3233 56.994 23.6269 56.8208 23.9663C56.6496 24.3028 56.5377 24.6529 56.4901 25.0069C56.3937 25.7167 56.5056 26.2831 56.8325 26.7379C57.1331 27.1559 57.5942 27.3586 58.2431 27.3586C58.6283 27.3586 58.9737 27.2849 59.2986 27.1336C59.6352 26.9765 59.9368 26.767 60.1946 26.512C60.4553 26.254 60.6751 25.9505 60.8483 25.611C61.0195 25.2745 61.1314 24.9244 61.1791 24.5705C61.2754 23.8606 61.1625 23.2942 60.8357 22.8394C60.5312 22.4156 60.0827 22.2187 59.4251 22.2187H59.426ZM59.6187 20.028C60.5642 20.028 61.4164 20.0707 62.1782 20.156L62.3786 19.0892C61.5293 19.4704 60.6051 19.7846 59.6187 20.028ZM56.0893 10.5445C55.6797 10.5445 55.3217 10.719 54.9948 11.0778C54.6378 11.4696 54.3985 12.1019 54.2817 12.9592C54.1339 14.0473 54.2438 14.6166 54.3615 14.9017C54.4831 15.1965 54.6631 15.311 55.0055 15.311C55.4005 15.311 55.7556 15.1073 56.0922 14.6884C56.4735 14.2141 56.7265 13.5324 56.8442 12.6634C56.9959 11.5404 56.8617 11.0643 56.7683 10.88C56.6836 10.7142 56.5367 10.5445 56.0893 10.5445Z" fill="white"/>
<path d="M69.4363 7.90861C69.6552 7.90861 69.7982 7.94352 69.8673 8.01334C69.9354 8.08317 69.9529 8.18888 69.9178 8.32853L68.7913 14.3994L68.5501 15.6601L67.6901 20.2831H62.7481L63.1684 18.0419C62.0029 18.6955 60.6702 19.194 59.172 19.5363C57.6739 19.8787 55.9481 20.0503 53.9966 20.0503H47.0409L47.2121 18.7896H52.084L52.5228 16.7579C51.084 16.5397 50.0596 16.0965 49.4477 15.4274C48.8358 14.7582 48.5994 13.9096 48.7385 12.8826C48.9097 11.6219 49.6267 10.6492 50.8904 9.96358C52.1541 9.27891 53.9489 8.93658 56.2759 8.93658C58.6029 8.93658 60.1867 9.25564 61.1702 9.89376C62.1528 10.5319 62.5594 11.4813 62.3892 12.742C62.2559 13.7225 61.7918 14.5555 60.997 15.2402C60.2013 15.9249 59.0747 16.4078 57.6155 16.6881L57.2565 18.649C58.4774 18.5093 59.5835 18.2717 60.5739 17.9372C61.5632 17.6026 62.5137 17.1865 63.4252 16.6881L64.4068 11.3416C64.5226 10.719 64.4652 10.303 64.2365 10.0926C64.007 9.88212 63.6665 9.77738 63.2131 9.77738L63.3678 8.98313C64.0721 8.96761 64.7288 8.90167 65.3388 8.78432C65.9478 8.66795 66.511 8.54285 67.0286 8.41096C67.5461 8.27907 68.0072 8.16172 68.4109 8.06086C68.8147 7.96001 69.1571 7.90958 69.4382 7.90958M55.0064 15.8948C55.5842 15.8948 56.0979 15.6145 56.5493 15.054C56.9997 14.4934 57.2916 13.7234 57.4248 12.743C57.5581 11.7625 57.5134 11.0546 57.2906 10.6182C57.0688 10.1828 56.6689 9.96455 56.0911 9.96455C55.5132 9.96455 55.0044 10.206 54.5647 10.688C54.125 11.171 53.838 11.9022 53.7057 12.8826C53.5724 13.8631 53.6123 14.6108 53.8234 15.1238C54.0345 15.6378 54.4295 15.8948 55.0074 15.8948M59.6147 20.6109C62.2063 20.6109 64.0858 20.9416 65.2541 21.6029C66.4215 22.2643 66.9128 23.2807 66.727 24.65C66.5392 26.0349 65.7191 27.1016 64.2677 27.8484C62.8162 28.5951 60.747 28.9694 58.0611 28.9694C55.3751 28.9694 53.5695 28.6426 52.4089 27.989C51.2484 27.3353 50.762 26.3151 50.9497 24.9303C51.1375 23.5454 51.9566 22.4787 53.409 21.7319C54.8605 20.9842 56.9297 20.6109 59.6156 20.6109M58.2478 27.9424C58.7158 27.9424 59.1506 27.8493 59.5505 27.6622C59.9503 27.475 60.3034 27.2296 60.6099 26.9271C60.9163 26.6235 61.1702 26.2734 61.3726 25.8768C61.5749 25.4801 61.7043 25.0709 61.7607 24.651C61.8765 23.7956 61.7276 23.079 61.3142 22.5029C60.9007 21.9269 60.2713 21.6388 59.4289 21.6388C58.9609 21.6388 58.5261 21.7319 58.1262 21.9191C57.7264 22.1063 57.3723 22.3506 57.0659 22.6542C56.7594 22.9577 56.5045 23.3078 56.3032 23.7045C56.1008 24.1011 55.9714 24.5104 55.915 24.9303C55.7992 25.7866 55.9481 26.5023 56.3615 27.0784C56.775 27.6544 57.4044 27.9424 58.2469 27.9424M69.4382 6.74584C69.0579 6.74584 68.6289 6.80693 68.1259 6.933C67.7193 7.03483 67.2572 7.15218 66.7387 7.28407C66.2464 7.41014 65.7016 7.53039 65.1179 7.64192C64.5741 7.74568 63.9768 7.80581 63.3415 7.81939L62.3999 7.83975L62.2209 8.76105L62.144 9.15769C62.038 9.07429 61.9261 8.99477 61.8084 8.91815C60.6196 8.14718 58.8101 7.77187 56.2769 7.77187C53.7437 7.77187 51.7854 8.15396 50.3339 8.94046C48.7531 9.79775 47.8016 11.106 47.5828 12.7255C47.3989 14.0861 47.7452 15.2916 48.5867 16.21C49.1704 16.8481 49.9779 17.3155 51.0353 17.6239H46.1936L46.0574 18.6315L45.8862 19.8922L45.7072 21.2121H52.012C50.7367 22.1063 49.9915 23.3001 49.792 24.7722C49.6675 25.6896 49.7775 26.5168 50.1189 27.2316C50.4662 27.9599 51.0431 28.5544 51.834 29.0005C53.1853 29.7617 55.2214 30.1312 58.0601 30.1312C60.8988 30.1312 63.1664 29.722 64.8018 28.8812C66.6054 27.9531 67.6414 26.5809 67.8827 24.8042C68.0062 23.8926 67.8934 23.0693 67.548 22.3545C67.3885 22.0238 67.1813 21.7213 66.9274 21.4458H68.6629L68.84 20.4945L69.6999 15.8735L69.9402 14.6156V14.6127L69.9412 14.6098L71.0629 8.56418C71.1777 8.04632 71.0483 7.55076 70.7039 7.1997C70.2554 6.7439 69.6396 6.7439 69.4373 6.7439L69.4382 6.74584ZM54.9227 14.7252C54.9169 14.7155 54.9101 14.702 54.9023 14.6826C54.8284 14.5031 54.7243 14.0503 54.8614 13.0388C54.9597 12.3114 55.1562 11.7693 55.4276 11.4706C55.7049 11.1671 55.9277 11.1273 56.0901 11.1273C56.1767 11.1273 56.2253 11.137 56.2487 11.1438C56.2487 11.1438 56.2487 11.1438 56.2487 11.1448C56.2662 11.1787 56.4131 11.5065 56.2662 12.5869C56.1631 13.3501 55.951 13.9358 55.6368 14.3257C55.3109 14.7301 55.0891 14.7301 55.0054 14.7301C54.9655 14.7301 54.9383 14.7272 54.9218 14.7243L54.9227 14.7252ZM61.4942 16.337C61.5856 16.2672 61.6741 16.1954 61.7597 16.1217C62.0273 15.8909 62.2666 15.6465 62.4757 15.3866L62.3775 15.9229C62.0876 16.0694 61.7928 16.2071 61.4942 16.337ZM58.2459 26.7787C57.6564 26.7787 57.4355 26.577 57.3091 26.4005C57.0736 26.0717 56.9948 25.6421 57.0707 25.0864C57.1106 24.7935 57.1991 24.5133 57.3431 24.232C57.49 23.943 57.668 23.6977 57.8879 23.4804C58.1009 23.27 58.3403 23.1042 58.6204 22.9733C58.8656 22.8588 59.1302 22.8026 59.4279 22.8026C60.0174 22.8026 60.2382 23.0043 60.3647 23.1808C60.6011 23.5095 60.6789 23.9392 60.604 24.4948C60.5641 24.7877 60.4756 25.067 60.3316 25.3502C60.1847 25.6382 60.0067 25.8845 59.7868 26.1018C59.5748 26.3122 59.3345 26.4781 59.0543 26.609C58.8092 26.7234 58.5445 26.7787 58.2469 26.7787H58.2459Z" fill="black"/>
<path d="M70.8285 17.1022C69.9501 17.1022 69.2992 16.8656 68.8926 16.3991C68.4869 15.9336 68.341 15.2518 68.4607 14.3722C68.5755 13.5276 68.8955 12.8584 69.4131 12.3832C69.9394 11.9003 70.6495 11.6549 71.5231 11.6549C72.3967 11.6549 73.0475 11.8935 73.4561 12.3648C73.8628 12.8342 74.0097 13.514 73.891 14.3849C73.7762 15.2295 73.4561 15.8987 72.9386 16.3739C72.4123 16.8568 71.7021 17.1022 70.8285 17.1022Z" fill="white"/>
<path d="M71.5221 12.2367C72.2226 12.2367 72.7197 12.4065 73.0145 12.7449C73.3082 13.0843 73.4075 13.6041 73.3131 14.3063C73.2168 15.0162 72.96 15.5631 72.5436 15.9462C72.1263 16.3292 71.5552 16.5203 70.8295 16.5203C70.1038 16.5203 69.6261 16.3525 69.3333 16.0179C69.0405 15.6834 68.9432 15.1606 69.0395 14.4508C69.1358 13.7409 69.3926 13.1939 69.809 12.8118C70.2263 12.4288 70.7974 12.2377 71.5231 12.2377M71.5231 11.074C70.4978 11.074 69.6553 11.3707 69.0171 11.9565C68.3965 12.5257 68.0141 13.3132 67.8818 14.2956C67.7388 15.3488 67.9314 16.1857 68.4519 16.7831C68.9743 17.3815 69.774 17.686 70.8285 17.686C71.8831 17.686 72.6963 17.3892 73.3335 16.8035C73.9542 16.2332 74.3365 15.4467 74.4688 14.4634C74.6099 13.4199 74.4182 12.5868 73.8968 11.9856C73.3725 11.3804 72.5728 11.074 71.5212 11.074H71.5231Z" fill="black"/>
<path d="M40.185 11.4084C40.3679 11.238 40.3952 10.9707 40.2458 10.8115C40.0965 10.6523 39.8272 10.6613 39.6443 10.8318C39.4614 11.0022 39.4342 11.2695 39.5835 11.4287C39.7328 11.588 40.0021 11.5789 40.185 11.4084Z" fill="black"/>
<path d="M65.6326 4.23216C65.4293 4.23216 65.2766 4.17494 65.1783 4.06244C65.0801 3.94995 65.0441 3.78993 65.0713 3.58628C65.0976 3.39523 65.1715 3.24201 65.2902 3.13242C65.4128 3.01992 65.5762 2.96271 65.7747 2.96271C65.9731 2.96271 66.1297 3.02089 66.229 3.13436C66.3272 3.24782 66.3632 3.40784 66.336 3.60858C66.3097 3.79963 66.2358 3.95286 66.1161 4.06244C65.9935 4.17494 65.8301 4.23216 65.6317 4.23216H65.6326Z" fill="black"/>
<path d="M65.7757 3.15667C65.9196 3.15667 66.0218 3.19158 66.0831 3.2614C66.1434 3.33123 66.1638 3.4379 66.1444 3.5824C66.1249 3.72884 66.0714 3.84133 65.9858 3.91989C65.9002 3.99844 65.7825 4.0382 65.6327 4.0382C65.4828 4.0382 65.3846 4.00329 65.3253 3.93443C65.2649 3.86558 65.2445 3.75793 65.2649 3.6115C65.2844 3.46506 65.3379 3.35256 65.4235 3.27401C65.5091 3.19546 65.6268 3.1557 65.7766 3.1557M65.0324 4.18852C65.1696 4.34562 65.3719 4.42515 65.6336 4.42515C65.8953 4.42515 66.0909 4.35047 66.2504 4.20403C66.4041 4.06245 66.4985 3.87043 66.5306 3.63283C66.5656 3.3739 66.514 3.16346 66.3779 3.00635L65.8301 2.46521L64.3865 3.15473L64.5314 3.68035L65.0324 4.18755V4.18852Z" fill="black"/>
<path d="M65.1033 3.70457C64.9 3.70457 64.7473 3.64735 64.649 3.53486C64.5508 3.42236 64.5148 3.26235 64.542 3.05869C64.5683 2.86764 64.6422 2.71442 64.7609 2.60483C64.8835 2.49234 65.0469 2.43512 65.2454 2.43512C65.4438 2.43512 65.6004 2.49331 65.6997 2.60677C65.7979 2.72024 65.8339 2.88025 65.8067 3.081C65.7804 3.27204 65.7065 3.42527 65.5868 3.53486C65.4643 3.64735 65.3008 3.70457 65.1024 3.70457H65.1033Z" fill="white"/>
<path d="M65.2464 2.62911C65.3904 2.62911 65.4926 2.66402 65.5538 2.73385C65.6142 2.80367 65.6346 2.91035 65.6151 3.05485C65.5957 3.20128 65.5422 3.31378 65.4566 3.39233C65.371 3.47088 65.2532 3.51065 65.1034 3.51065C64.9536 3.51065 64.8554 3.47573 64.796 3.40688C64.7357 3.33802 64.7153 3.23038 64.7357 3.08394C64.7552 2.9375 64.8087 2.82501 64.8943 2.74646C64.9799 2.6679 65.0976 2.62814 65.2474 2.62814M65.2474 2.24023C64.9974 2.24023 64.7902 2.3149 64.6306 2.46134C64.4769 2.60293 64.3826 2.79494 64.3505 3.03157C64.3154 3.29244 64.366 3.50386 64.5032 3.66096C64.6404 3.81807 64.8427 3.89759 65.1044 3.89759C65.3661 3.89759 65.5616 3.82292 65.7212 3.67648C65.8749 3.53489 65.9692 3.34287 66.0013 3.10528C66.0364 2.84634 65.9848 2.6359 65.8486 2.47879C65.7105 2.31975 65.5081 2.23926 65.2474 2.23926V2.24023Z" fill="black"/>
<path d="M60.283 1.99095C60.0797 1.99095 59.927 1.93373 59.8287 1.82123C59.7305 1.70874 59.6945 1.54872 59.7217 1.34507C59.748 1.15402 59.8219 1.00079 59.9406 0.891209C60.0632 0.778714 60.2266 0.721497 60.4251 0.721497C60.6235 0.721497 60.7801 0.779684 60.8794 0.893149C60.9776 1.00661 61.0136 1.16663 60.9864 1.36737C60.9601 1.55842 60.8862 1.71165 60.7665 1.82123C60.6439 1.93373 60.4805 1.99095 60.282 1.99095H60.283Z" fill="black"/>
<path d="M60.4261 0.915456C60.57 0.915456 60.6722 0.950368 60.7335 1.02019C60.7938 1.09002 60.8142 1.19669 60.7948 1.34119C60.7753 1.48763 60.7218 1.60012 60.6362 1.67868C60.5506 1.75723 60.4329 1.79699 60.2831 1.79699C60.1332 1.79699 60.035 1.76208 59.9756 1.69322C59.9153 1.62437 59.8949 1.51672 59.9153 1.37028C59.9348 1.22385 59.9883 1.11135 60.0739 1.0328C60.1595 0.954247 60.2772 0.914486 60.427 0.914486M59.6828 1.94731C59.82 2.10441 60.0223 2.18393 60.284 2.18393C60.5457 2.18393 60.7413 2.10926 60.9008 1.96282C61.0545 1.82124 61.1489 1.62922 61.181 1.39162C61.216 1.13269 61.1644 0.922244 61.0282 0.765139L60.4805 0.223999L59.0369 0.913516L59.1818 1.43914L59.6828 1.94634V1.94731Z" fill="black"/>
<path d="M59.7548 1.46342C59.5515 1.46342 59.3988 1.4062 59.3005 1.29371C59.2023 1.18121 59.1663 1.0212 59.1935 0.817542C59.2198 0.625524 59.2937 0.473268 59.4134 0.363682C59.5359 0.251187 59.6984 0.19397 59.8978 0.19397C60.0973 0.19397 60.2529 0.252157 60.3521 0.365622C60.4504 0.479087 60.4864 0.639101 60.4591 0.839847C60.4329 1.03089 60.3589 1.18412 60.2403 1.29371C60.1177 1.4062 59.9543 1.46342 59.7558 1.46342H59.7548Z" fill="white"/>
<path d="M59.8968 0.387907C60.0408 0.387907 60.1429 0.42282 60.2042 0.492644C60.2645 0.562469 60.285 0.669145 60.2655 0.813643C60.2461 0.960081 60.1926 1.07258 60.107 1.15113C60.0213 1.22968 59.9036 1.26944 59.7538 1.26944C59.604 1.26944 59.5057 1.23453 59.4464 1.16567C59.3861 1.09682 59.3657 0.989174 59.3861 0.842736C59.4055 0.696299 59.4591 0.583804 59.5447 0.505251C59.6303 0.426699 59.748 0.386937 59.8978 0.386937M59.8978 -0.000976562C59.6478 -0.000976562 59.4406 0.0736969 59.281 0.220134C59.1273 0.361723 59.033 0.553741 59.0008 0.791338C58.9658 1.05221 59.0164 1.26362 59.1536 1.41976C59.2908 1.57686 59.4931 1.65639 59.7548 1.65639C60.0165 1.65639 60.212 1.58171 60.3716 1.43528C60.5253 1.29369 60.6196 1.10167 60.6517 0.864072C60.6868 0.605139 60.6352 0.394696 60.499 0.237591C60.3618 0.0785458 60.1595 -0.000976562 59.8978 -0.000976562Z" fill="black"/>
<path d="M55.3051 3.25266C55.1018 3.25266 54.9491 3.19545 54.8508 3.08295C54.7526 2.97046 54.7166 2.81044 54.7438 2.60679C54.7701 2.41574 54.844 2.26251 54.9627 2.15293C55.0853 2.04043 55.2487 1.98322 55.4472 1.98322C55.6456 1.98322 55.8022 2.0414 55.9015 2.15487C55.9997 2.26833 56.0357 2.42835 56.0085 2.62909C55.9822 2.82014 55.9083 2.97337 55.7886 3.08295C55.666 3.19545 55.5026 3.25266 55.3041 3.25266H55.3051Z" fill="black"/>
<path d="M55.4482 2.17717C55.5921 2.17717 55.6943 2.21209 55.7556 2.28191C55.8159 2.35174 55.8363 2.45841 55.8169 2.60291C55.7974 2.74935 55.7439 2.86184 55.6583 2.9404C55.5727 3.01895 55.455 3.05871 55.3051 3.05871C55.1553 3.05871 55.0571 3.0238 54.9977 2.95494C54.9374 2.88609 54.917 2.77844 54.9374 2.632C54.9569 2.48557 55.0104 2.37307 55.096 2.29452C55.1816 2.21597 55.2993 2.1762 55.4491 2.1762M54.7049 3.20903C54.8421 3.36613 55.0444 3.44565 55.3061 3.44565C55.5678 3.44565 55.7633 3.37098 55.9229 3.22454C56.0766 3.08295 56.171 2.89094 56.2031 2.65334C56.2381 2.39441 56.1865 2.18396 56.0503 2.02686L55.5026 1.48572L54.059 2.17524L54.2039 2.70086L54.7049 3.20806V3.20903Z" fill="black"/>
<path d="M54.7758 2.72508C54.5725 2.72508 54.4198 2.66786 54.3215 2.55536C54.2233 2.44287 54.1873 2.28285 54.2155 2.0792C54.2418 1.88815 54.3147 1.73493 54.4344 1.62534C54.557 1.51284 54.7204 1.45563 54.9189 1.45563C55.1173 1.45563 55.2739 1.51381 55.3732 1.62728C55.4714 1.74074 55.5074 1.89979 55.4802 2.1015C55.4539 2.29255 55.3809 2.44578 55.2613 2.55536C55.1387 2.66786 54.9753 2.72508 54.7768 2.72508H54.7758Z" fill="white"/>
<path d="M54.9189 1.64962C55.0629 1.64962 55.1651 1.68453 55.2264 1.75436C55.2867 1.82418 55.3071 1.93086 55.2876 2.07535C55.2682 2.22179 55.2147 2.33429 55.1291 2.41284C55.0435 2.49139 54.9258 2.53115 54.7759 2.53115C54.6261 2.53115 54.5279 2.49624 54.4685 2.42739C54.4082 2.35853 54.3878 2.25089 54.4082 2.10445C54.4277 1.95801 54.4812 1.84552 54.5668 1.76696C54.6524 1.68841 54.7701 1.64865 54.9199 1.64865M54.9199 1.26074C54.6699 1.26074 54.4627 1.33541 54.3031 1.48185C54.1494 1.62344 54.0551 1.81545 54.023 2.05208C53.9879 2.31295 54.0395 2.52437 54.1757 2.68147C54.3129 2.83858 54.5152 2.9181 54.7769 2.9181C55.0386 2.9181 55.2341 2.84342 55.3937 2.69699C55.5474 2.5554 55.6417 2.36338 55.6739 2.12578C55.7089 1.86685 55.6573 1.65641 55.5211 1.4993C55.3839 1.34026 55.1816 1.25977 54.9199 1.25977V1.26074Z" fill="black"/>
</g>
<defs>
<clipPath id="clip0_496_13">
<rect width="76" height="32" fill="white"/>
</clipPath>
</defs>
</svg>
