<svg width="23" height="24" viewBox="0 0 23 24" fill="none" xmlns="http://www.w3.org/2000/svg">
<path d="M4.43785 18.2501C5.6239 18.2161 6.80194 17.9721 7.90399 17.5301C8.262 17.3861 8.62002 17.2361 8.96003 17.056C9.09204 16.986 9.25804 16.918 9.35405 16.798C9.44005 16.69 9.45605 16.544 9.50005 16.416C9.67406 15.908 10.0981 15.866 10.1941 15.818C10.4541 15.686 10.9541 15.316 10.8081 14.974C10.7141 14.756 9.25404 14.0739 9.55206 12.8219C9.69806 12.2119 10.1481 12.4819 11.6001 11.9538C12.2222 11.7278 12.7322 11.2618 13.1262 10.7298C14.4363 8.96772 14.5603 7.19365 13.9502 5.12957C13.4662 3.4895 12.5642 1.98344 11.3521 0.77739C11.0461 0.473378 11.2901 -0.0466429 11.7181 0.00335913C17.8944 0.721388 22.6426 6.11161 22.3386 12.5459C22.0486 18.6581 17.1204 23.6343 11.0121 23.9803C6.39593 24.2403 2.30576 21.9002 0.069673 18.2881C-0.156336 17.9221 0.207679 17.4801 0.611695 17.6281C1.79774 18.0661 3.0898 18.2881 4.43785 18.2501Z" fill="#FFE558"/>
<path d="M4.43785 18.2501C5.6239 18.2161 6.80194 17.9721 7.90399 17.5301C8.262 17.3861 8.62002 17.2361 8.96003 17.056C9.09204 16.986 9.25804 16.918 9.35405 16.798C9.44005 16.69 9.45605 16.544 9.50005 16.416C9.67406 15.908 10.0981 15.866 10.1941 15.818C10.4541 15.686 10.9541 15.316 10.8081 14.974C10.7141 14.756 9.25404 14.0739 9.55206 12.8219C9.69806 12.2119 10.1481 12.4819 11.6001 11.9538C12.2222 11.7278 12.7322 11.2618 13.1262 10.7298C14.4363 8.96772 14.5603 7.19365 13.9502 5.12957C13.4662 3.4895 12.5642 1.98344 11.3521 0.77739C11.0461 0.473378 11.2901 -0.0466429 11.7181 0.00335913C17.8944 0.721388 22.6426 6.11161 22.3386 12.5459C22.0486 18.6581 17.1204 23.6343 11.0121 23.9803C6.39593 24.2403 2.30576 21.9002 0.069673 18.2881C-0.156336 17.9221 0.207679 17.4801 0.611695 17.6281C1.79774 18.0661 3.0898 18.2881 4.43785 18.2501Z" fill="#FFE558"/>
<path d="M1.71159 19.9182C4.13769 22.0243 7.74383 23.1423 10.612 22.9803C16.7202 22.6343 21.6484 17.6581 21.9384 11.5458C22.0204 9.79976 21.6784 8.03769 21.0004 6.41162C21.9484 8.23369 22.4444 10.3278 22.3384 12.5459C22.0484 18.6581 17.1202 23.6343 11.012 23.9803C6.39578 24.2403 2.30561 21.9002 0.0695234 18.2881C-0.000479479 18.1761 -0.0144802 18.0561 0.013521 17.9481C0.461539 18.6761 1.04156 19.3341 1.71159 19.9182Z" fill="#FBC02D"/>
<path d="M11.718 0.00335693C11.718 0.00335693 14.1621 2.03344 15.0461 4.50154C15.7722 6.52962 16.3002 10.6618 11.5 12.3639L14.9421 15.71C15.0621 15.61 14.9321 14.3459 17.0982 13.2819C17.7623 12.9559 19.2323 13.5739 19.9283 13.3279C23.2765 12.1418 21.4704 7.34365 21.2424 6.90964C17.7043 0.123361 11.718 0.00335693 11.718 0.00335693Z" fill="url(#paint0_radial_6_20)"/>
<path d="M15.8402 13.0119C15.1402 13.1339 14.5802 12.5539 14.5042 11.9059C14.4442 11.3879 14.6502 10.9119 14.8962 10.7018C15.9242 9.82381 17.9123 10.7038 17.8583 12.4399C17.8543 12.5519 17.8143 12.6699 17.7243 12.7379C17.6483 12.5919 17.5103 11.9279 16.9083 11.6579C16.8642 11.6379 16.8062 11.6379 16.7662 11.6659C16.7122 11.7039 16.8422 12.8379 15.8402 13.0119Z" fill="#5D4037"/>
<path d="M11.548 17.8381C12.8521 17.8381 13.5581 17.2601 13.8701 16.862C13.9781 16.726 13.9461 16.528 13.8061 16.426C13.7121 16.358 13.5861 16.348 13.4841 16.404C12.518 16.938 11.21 17.0381 10.1119 16.466C9.89393 16.352 9.74192 16.078 9.59392 16.222C9.44391 16.366 9.49191 16.718 9.64992 16.94C9.90593 17.3061 10.424 17.8381 11.548 17.8381Z" fill="#5D4037"/>
<path d="M10.8259 15.166C10.8379 15.1019 10.8339 15.0379 10.8059 14.9739C10.7119 14.7559 9.2518 14.0739 9.54981 12.8219C9.56581 12.7579 9.58381 12.7059 9.60781 12.6599L9.61381 12.6639C9.70982 13.2139 10.0998 13.6859 10.5839 13.9659C10.7299 14.0499 10.8839 14.1199 11.0159 14.2239C11.1479 14.3279 11.2579 14.4759 11.2659 14.6439C11.2779 14.8579 11.1159 15.0559 10.9179 15.138C10.8879 15.152 10.8579 15.158 10.8259 15.166Z" fill="#F2A600"/>
<path d="M14.9422 15.71C15.2522 16.4601 16.4682 16.6681 17.6583 16.1741C18.8483 15.682 19.5624 14.674 19.2523 13.926C18.9423 13.1759 17.7263 12.9679 16.5362 13.4619C15.3462 13.954 14.6322 14.96 14.9422 15.71Z" fill="url(#paint1_radial_6_20)"/>
<defs>
<radialGradient id="paint0_radial_6_20" cx="0" cy="0" r="1" gradientUnits="userSpaceOnUse" gradientTransform="translate(15.0467 4.93894) rotate(180) scale(8.18737 8.64013)">
<stop stop-color="#FFF7B3"/>
<stop offset="1" stop-color="#FFF7B2" stop-opacity="0"/>
</radialGradient>
<radialGradient id="paint1_radial_6_20" cx="0" cy="0" r="1" gradientUnits="userSpaceOnUse" gradientTransform="translate(16.717 13.763) rotate(-23.0654) scale(3.22724 2.57934)">
<stop stop-color="#FBC02D"/>
<stop offset="1" stop-color="#FBC02D" stop-opacity="0"/>
</radialGradient>
</defs>
</svg>
