<svg width="14" height="15" viewBox="0 0 14 15" fill="none" xmlns="http://www.w3.org/2000/svg">
<path d="M6.99577 14.9333C7.41126 14.9333 7.75892 14.5875 7.75892 14.1618V8.26477H13.2369C13.6439 8.26477 14 7.90117 14 7.46667C14 7.03216 13.6439 6.67745 13.2369 6.67745H7.75892V0.771509C7.75892 0.345857 7.41126 0 6.99577 0C6.58024 0 6.24108 0.345857 6.24108 0.771509V6.67745H0.763149C0.356122 6.67745 0 7.03216 0 7.46667C0 7.90117 0.356122 8.26477 0.763149 8.26477H6.24108V14.1618C6.24108 14.5875 6.58024 14.9333 6.99577 14.9333Z" fill="white"/>
</svg>
