<svg width="24" height="24" viewBox="0 0 24 24" fill="none" xmlns="http://www.w3.org/2000/svg">
<path d="M11.9999 17.6C15.0927 17.6 17.5999 15.0928 17.5999 12C17.5999 8.90723 15.0927 6.40002 11.9999 6.40002C8.90711 6.40002 6.3999 8.90723 6.3999 12C6.3999 15.0928 8.90711 17.6 11.9999 17.6Z" fill="#FFCE31"/>
<path d="M14.24 5.48L12 0L9.76 5.48C10.48 5.36 11.24 5.28 12 5.28C12.76 5.28 13.52 5.36 14.24 5.48ZM9.76 18.52L12 24L14.24 18.52C13.52 18.64 12.76 18.72 12 18.72C11.24 18.72 10.48 18.64 9.76 18.52ZM18.52 14.24L24 12L18.52 9.76C18.64 10.48 18.72 11.24 18.72 12C18.72 12.76 18.64 13.52 18.52 14.24ZM5.48 9.76L0 12L5.48 14.24C5.36 13.52 5.28 12.76 5.28 12C5.28 11.24 5.36 10.48 5.48 9.76ZM18.2 8.96L20.48 3.52L15.04 5.8C15.64 6.24 16.24 6.68 16.76 7.24C17.32 7.8 17.76 8.36 18.2 8.96ZM5.8 15.04L3.52 20.48L8.96 18.2C8.36 17.76 7.76 17.32 7.24 16.76C6.68 16.2 6.24 15.64 5.8 15.04ZM15.04 18.2L20.48 20.48L18.2 15.04C17.76 15.64 17.32 16.24 16.76 16.76C16.2 17.32 15.64 17.76 15.04 18.2ZM8.96 5.8L3.52 3.52L5.8 8.96C6.24 8.36 6.68 7.76 7.24 7.24C7.8 6.68 8.36 6.24 8.96 5.8Z" fill="#FFCE31"/>
</svg>
